<svg width="250" height="250" viewBox="0 0 250 250" fill="none" xmlns="http://www.w3.org/2000/svg">
<g clip-path="url(#clip0_148_548)">
<path d="M0 0H250V250H0V0Z" fill="#FFBD59"/>
<path d="M88.559 136.684C90.9982 131.58 90.7291 124.931 87.7951 117.96C82.6128 105.634 73.6805 98.5938 66.085 100.833C58.4982 103.073 55.3993 113.464 58.3767 126.684C59.9826 133.828 63.6805 139.401 68.7934 142.37C71.2413 143.793 73.8628 144.523 76.4236 144.523C77.6909 144.523 78.9409 144.349 80.1475 143.984C83.8368 142.899 86.8229 140.304 88.559 136.684Z" fill="black"/>
<path d="M93.1336 105.556C96.1718 108.325 99.8437 109.809 103.576 109.809C103.976 109.809 104.375 109.792 104.766 109.757C108.932 109.41 112.708 107.3 115.408 103.828C119.175 98.9757 120.469 91.9098 119.054 83.941C116.528 69.7744 108.793 60.3907 100.234 61.1112C91.71 61.8317 85.9635 72.1355 85.9375 86.7362C85.9201 94.6268 88.4722 101.302 93.1336 105.556Z" fill="black"/>
<path d="M184.375 100.833C176.78 98.5938 167.847 105.634 162.665 117.96C159.731 124.931 159.462 131.58 161.901 136.684C163.637 140.304 166.623 142.899 170.312 143.984C171.519 144.349 172.769 144.523 174.036 144.523C176.597 144.523 179.219 143.793 181.667 142.37C186.771 139.401 190.477 133.828 192.083 126.684C195.061 113.464 191.962 103.073 184.375 100.833Z" fill="black"/>
<path d="M145.695 109.757C146.085 109.792 146.484 109.809 146.875 109.809C150.616 109.809 154.288 108.325 157.326 105.556C161.988 101.302 164.54 94.6268 164.523 86.7362C164.497 72.1355 158.75 61.8317 150.226 61.1112C141.675 60.3907 133.932 69.7744 131.406 83.941C129.991 91.9098 131.285 98.9757 135.052 103.828C137.752 107.3 141.528 109.41 145.695 109.757Z" fill="black"/>
<path d="M157.5 147.96C147.405 140.582 143.281 129.288 143.238 129.175L143.221 129.123C137.552 115.312 127.231 114.757 125.252 114.792C123.238 114.757 112.917 115.312 107.24 129.141C107.196 129.262 102.344 141.354 92.9775 147.951C85.3733 153.299 78.698 163.437 82.7692 175.833C82.8907 176.241 84.2015 180.512 88.0383 184.149C94.6528 190.399 103.359 189.74 109.497 188.073L109.531 188.064C109.592 188.047 115.556 186.18 120.833 184.861C123.715 184.132 126.754 184.132 129.635 184.861C134.913 186.18 140.877 188.047 140.929 188.064L140.972 188.073C143.95 188.88 146.615 189.219 148.984 189.219C155.46 189.219 159.757 186.675 162.431 184.149C166.267 180.512 167.578 176.241 167.7 175.833C172.717 160.547 161.163 150.634 157.5 147.96Z" fill="black"/>
</g>
<defs>
<clipPath id="clip0_148_548">
<rect width="250" height="250" rx="7" fill="white"/>
</clipPath>
</defs>
</svg>
