<svg width="169" height="20" viewBox="0 0 169 20" fill="none" xmlns="http://www.w3.org/2000/svg">
<path d="M0.575195 9.99609C0.575195 9.83203 0.602539 9.67969 0.657227 9.53906C0.719727 9.39062 0.817383 9.25391 0.950195 9.12891L9.66895 0.609375C9.8877 0.382813 10.1572 0.269531 10.4775 0.269531C10.6963 0.269531 10.8916 0.320312 11.0635 0.421875C11.2432 0.523438 11.3838 0.660156 11.4854 0.832031C11.5947 1.00391 11.6494 1.20313 11.6494 1.42969C11.6494 1.74219 11.5322 2.01562 11.2979 2.25L3.37598 9.99609L11.2979 17.7422C11.5322 17.9766 11.6494 18.25 11.6494 18.5625C11.6494 18.7812 11.5947 18.9766 11.4854 19.1484C11.3838 19.3281 11.2432 19.4688 11.0635 19.5703C10.8916 19.6719 10.6963 19.7227 10.4775 19.7227C10.1572 19.7227 9.8877 19.6094 9.66895 19.3828L0.950195 10.8633C0.817383 10.7383 0.719727 10.6055 0.657227 10.4648C0.602539 10.3164 0.575195 10.1602 0.575195 9.99609ZM22.1258 18V2.72727H27.4653C28.5292 2.72727 29.4067 2.91122 30.0977 3.27912C30.7888 3.64204 31.3034 4.13175 31.6414 4.74822C31.9795 5.35973 32.1485 6.03835 32.1485 6.78409C32.1485 7.44034 32.0317 7.98224 31.798 8.4098C31.5693 8.83736 31.2661 9.17543 30.8882 9.42401C30.5154 9.67259 30.1102 9.85653 29.6727 9.97585V10.125C30.14 10.1548 30.6098 10.3189 31.0821 10.6172C31.5544 10.9155 31.9497 11.343 32.2678 11.8999C32.586 12.4567 32.7451 13.1378 32.7451 13.9432C32.7451 14.7088 32.5711 15.3974 32.2231 16.0089C31.8751 16.6204 31.3257 17.1051 30.575 17.4631C29.8243 17.821 28.8474 18 27.6443 18H22.1258ZM23.9752 16.3594H27.6443C28.8524 16.3594 29.71 16.1257 30.2171 15.6584C30.7291 15.1861 30.9852 14.6143 30.9852 13.9432C30.9852 13.4261 30.8534 12.9489 30.5899 12.5114C30.3264 12.0689 29.9511 11.7159 29.4639 11.4524C28.9767 11.1839 28.3999 11.0497 27.7338 11.0497H23.9752V16.3594ZM23.9752 9.43892H27.4056C27.9624 9.43892 28.4646 9.32955 28.912 9.1108C29.3644 8.89205 29.7224 8.58381 29.9859 8.18608C30.2544 7.78835 30.3886 7.32102 30.3886 6.78409C30.3886 6.11293 30.1549 5.54368 29.6876 5.07635C29.2203 4.60405 28.4795 4.3679 27.4653 4.3679H23.9752V9.43892ZM38.9161 18.2685C38.1903 18.2685 37.5315 18.1317 36.9399 17.8583C36.3483 17.5799 35.8785 17.1797 35.5305 16.6577C35.1824 16.1307 35.0084 15.4943 35.0084 14.7486C35.0084 14.0923 35.1377 13.5604 35.3962 13.1527C35.6547 12.7401 36.0003 12.4169 36.4328 12.1832C36.8653 11.9496 37.3426 11.7756 37.8646 11.6612C38.3916 11.5419 38.9211 11.4474 39.453 11.3778C40.1491 11.2884 40.7133 11.2212 41.1459 11.1765C41.5834 11.1268 41.9015 11.0447 42.1004 10.9304C42.3042 10.8161 42.4062 10.6172 42.4062 10.3338V10.2741C42.4062 9.53835 42.2048 8.96662 41.8021 8.55895C41.4044 8.15128 40.8003 7.94744 39.99 7.94744C39.1498 7.94744 38.491 8.13139 38.0138 8.49929C37.5365 8.86719 37.2009 9.25994 37.007 9.67756L35.3366 9.08097C35.6349 8.38494 36.0326 7.84304 36.5297 7.45526C37.0319 7.0625 37.5787 6.78906 38.1704 6.63494C38.767 6.47585 39.3536 6.39631 39.9303 6.39631C40.2982 6.39631 40.7208 6.44105 41.1981 6.53054C41.6803 6.61506 42.1452 6.79155 42.5926 7.06001C43.045 7.32848 43.4204 7.73366 43.7187 8.27557C44.017 8.81747 44.1661 9.54332 44.1661 10.4531V18H42.4062V16.4489H42.3167C42.1974 16.6974 41.9985 16.9634 41.7201 17.2468C41.4417 17.5302 41.0713 17.7713 40.6089 17.9702C40.1466 18.169 39.5823 18.2685 38.9161 18.2685ZM39.1846 16.6875C39.8806 16.6875 40.4672 16.5508 40.9445 16.2773C41.4268 16.0039 41.7897 15.6509 42.0333 15.2184C42.2819 14.7859 42.4062 14.331 42.4062 13.8537V12.2429C42.3316 12.3324 42.1675 12.4144 41.914 12.489C41.6654 12.5586 41.377 12.6207 41.0489 12.6754C40.7258 12.7251 40.4101 12.7699 40.1018 12.8097C39.7986 12.8445 39.5525 12.8743 39.3635 12.8991C38.9062 12.9588 38.4786 13.0558 38.0809 13.19C37.6881 13.3192 37.3699 13.5156 37.1263 13.7791C36.8877 14.0376 36.7684 14.3906 36.7684 14.8381C36.7684 15.4496 36.9946 15.9119 37.447 16.2251C37.9044 16.5334 38.4836 16.6875 39.1846 16.6875ZM52.0318 18.2386C50.9579 18.2386 50.0332 17.9851 49.2576 17.478C48.4821 16.9709 47.8855 16.2724 47.4679 15.3825C47.0502 14.4925 46.8414 13.4759 46.8414 12.3324C46.8414 11.169 47.0552 10.1424 47.4828 9.25249C47.9153 8.3576 48.5169 7.65909 49.2875 7.15696C50.063 6.64986 50.9679 6.39631 52.002 6.39631C52.8074 6.39631 53.5332 6.54545 54.1795 6.84375C54.8258 7.14205 55.3553 7.55966 55.7679 8.09659C56.1806 8.63352 56.4366 9.25994 56.536 9.97585H54.7761C54.6419 9.45383 54.3436 8.99148 53.8812 8.58878C53.4238 8.18111 52.8074 7.97727 52.0318 7.97727C51.3457 7.97727 50.7441 8.15625 50.2271 8.5142C49.715 8.86719 49.3148 9.36683 49.0265 10.0131C48.7431 10.6545 48.6014 11.4077 48.6014 12.2727C48.6014 13.1577 48.7406 13.9283 49.019 14.5845C49.3024 15.2408 49.7001 15.7504 50.2122 16.1133C50.7292 16.4762 51.3358 16.6577 52.0318 16.6577C52.4892 16.6577 52.9043 16.5781 53.2772 16.419C53.65 16.2599 53.9657 16.0312 54.2243 15.733C54.4828 15.4347 54.6667 15.0767 54.7761 14.6591H56.536C56.4366 15.3352 56.1905 15.9442 55.7978 16.4862C55.41 17.0231 54.8954 17.4506 54.2541 17.7688C53.6177 18.082 52.877 18.2386 52.0318 18.2386ZM60.7495 13.8239L60.7196 11.6463H61.0776L66.089 6.54545H68.2665L62.927 11.9446H62.7779L60.7495 13.8239ZM59.1088 18V2.72727H60.8688V18H59.1088ZM66.3873 18L61.9128 12.3324L63.1657 11.1094L68.6245 18H66.3873ZM81.4195 6.54545V8.03693H75.4834V6.54545H81.4195ZM77.2135 3.80114H78.9735V14.7188C78.9735 15.2159 79.0455 15.5888 79.1897 15.8374C79.3389 16.081 79.5278 16.245 79.7565 16.3295C79.9901 16.4091 80.2362 16.4489 80.4948 16.4489C80.6887 16.4489 80.8477 16.4389 80.972 16.419C81.0963 16.3942 81.1958 16.3743 81.2703 16.3594L81.6283 17.9403C81.509 17.9851 81.3424 18.0298 81.1286 18.0746C80.9149 18.1243 80.6439 18.1491 80.3158 18.1491C79.8186 18.1491 79.3314 18.0423 78.8541 17.8285C78.3818 17.6147 77.9891 17.2891 77.6759 16.8516C77.3676 16.4141 77.2135 15.8622 77.2135 15.196V3.80114ZM88.5972 18.2386C87.5631 18.2386 86.6558 17.9925 85.8753 17.5004C85.0997 17.0082 84.4932 16.3196 84.0557 15.4347C83.6231 14.5497 83.4069 13.5156 83.4069 12.3324C83.4069 11.1392 83.6231 10.0977 84.0557 9.20774C84.4932 8.31783 85.0997 7.62678 85.8753 7.13459C86.6558 6.6424 87.5631 6.39631 88.5972 6.39631C89.6313 6.39631 90.5361 6.6424 91.3117 7.13459C92.0922 7.62678 92.6988 8.31783 93.1313 9.20774C93.5688 10.0977 93.7876 11.1392 93.7876 12.3324C93.7876 13.5156 93.5688 14.5497 93.1313 15.4347C92.6988 16.3196 92.0922 17.0082 91.3117 17.5004C90.5361 17.9925 89.6313 18.2386 88.5972 18.2386ZM88.5972 16.6577C89.3827 16.6577 90.029 16.4563 90.5361 16.0536C91.0432 15.6509 91.4186 15.1214 91.6622 14.4652C91.9058 13.8089 92.0276 13.098 92.0276 12.3324C92.0276 11.5668 91.9058 10.8533 91.6622 10.1921C91.4186 9.53089 91.0432 8.99645 90.5361 8.58878C90.029 8.18111 89.3827 7.97727 88.5972 7.97727C87.8117 7.97727 87.1654 8.18111 86.6583 8.58878C86.1512 8.99645 85.7758 9.53089 85.5322 10.1921C85.2886 10.8533 85.1668 11.5668 85.1668 12.3324C85.1668 13.098 85.2886 13.8089 85.5322 14.4652C85.7758 15.1214 86.1512 15.6509 86.6583 16.0536C87.1654 16.4563 87.8117 16.6577 88.5972 16.6577ZM110.971 6.54545C110.882 5.78977 110.519 5.20312 109.882 4.78551C109.246 4.3679 108.466 4.15909 107.541 4.15909C106.865 4.15909 106.273 4.26847 105.766 4.48722C105.264 4.70597 104.871 5.00675 104.588 5.38956C104.309 5.77237 104.17 6.20739 104.17 6.6946C104.17 7.10227 104.267 7.45277 104.461 7.74609C104.66 8.03445 104.913 8.27557 105.222 8.46946C105.53 8.65838 105.853 8.81499 106.191 8.93928C106.529 9.05859 106.84 9.15554 107.123 9.23011L108.674 9.64773C109.072 9.75213 109.515 9.89631 110.002 10.0803C110.494 10.2642 110.964 10.5153 111.411 10.8335C111.864 11.1467 112.237 11.5494 112.53 12.0415C112.823 12.5337 112.97 13.1378 112.97 13.8537C112.97 14.679 112.754 15.4247 112.321 16.0909C111.893 16.7571 111.267 17.2866 110.442 17.6793C109.621 18.0721 108.625 18.2685 107.451 18.2685C106.358 18.2685 105.411 18.092 104.61 17.739C103.815 17.386 103.188 16.8938 102.731 16.2624C102.278 15.631 102.022 14.8977 101.963 14.0625H103.872C103.922 14.6392 104.115 15.1165 104.453 15.4943C104.797 15.8672 105.229 16.1456 105.751 16.3295C106.278 16.5085 106.845 16.598 107.451 16.598C108.157 16.598 108.791 16.4837 109.353 16.255C109.915 16.0213 110.36 15.6982 110.688 15.2855C111.016 14.8679 111.18 14.3807 111.18 13.8239C111.18 13.3168 111.038 12.9041 110.755 12.5859C110.472 12.2678 110.099 12.0092 109.636 11.8104C109.174 11.6115 108.674 11.4375 108.137 11.2884L106.258 10.7514C105.065 10.4084 104.12 9.91868 103.424 9.28232C102.728 8.64595 102.38 7.81321 102.38 6.78409C102.38 5.92898 102.612 5.18324 103.074 4.54688C103.541 3.90554 104.168 3.40838 104.953 3.0554C105.744 2.69744 106.626 2.51847 107.6 2.51847C108.585 2.51847 109.46 2.69496 110.225 3.04794C110.991 3.39595 111.598 3.87322 112.045 4.47976C112.498 5.08629 112.736 5.77486 112.761 6.54545H110.971ZM120.574 18.2386C119.471 18.2386 118.519 17.995 117.718 17.5078C116.923 17.0156 116.309 16.3295 115.876 15.4496C115.449 14.5646 115.235 13.5355 115.235 12.3622C115.235 11.1889 115.449 10.1548 115.876 9.25994C116.309 8.36009 116.91 7.65909 117.681 7.15696C118.457 6.64986 119.361 6.39631 120.396 6.39631C120.992 6.39631 121.581 6.49574 122.163 6.6946C122.745 6.89347 123.274 7.21662 123.751 7.66406C124.229 8.10653 124.609 8.69318 124.892 9.42401C125.176 10.1548 125.317 11.0547 125.317 12.1236V12.8693H116.488V11.348H123.528C123.528 10.7017 123.398 10.125 123.14 9.6179C122.886 9.11079 122.523 8.71058 122.051 8.41726C121.584 8.12393 121.032 7.97727 120.396 7.97727C119.695 7.97727 119.088 8.15128 118.576 8.49929C118.069 8.84233 117.679 9.28977 117.405 9.84162C117.132 10.3935 116.995 10.9851 116.995 11.6165V12.6307C116.995 13.4957 117.144 14.229 117.442 14.8306C117.746 15.4272 118.166 15.8821 118.703 16.1953C119.24 16.5036 119.864 16.6577 120.574 16.6577C121.037 16.6577 121.454 16.593 121.827 16.4638C122.205 16.3295 122.531 16.1307 122.804 15.8672C123.078 15.5987 123.289 15.2656 123.438 14.8679L125.138 15.3452C124.959 15.9219 124.659 16.429 124.236 16.8665C123.813 17.299 123.291 17.6371 122.67 17.8807C122.049 18.1193 121.35 18.2386 120.574 18.2386ZM131.365 18.2685C130.639 18.2685 129.981 18.1317 129.389 17.8583C128.797 17.5799 128.328 17.1797 127.98 16.6577C127.632 16.1307 127.458 15.4943 127.458 14.7486C127.458 14.0923 127.587 13.5604 127.845 13.1527C128.104 12.7401 128.449 12.4169 128.882 12.1832C129.315 11.9496 129.792 11.7756 130.314 11.6612C130.841 11.5419 131.37 11.4474 131.902 11.3778C132.598 11.2884 133.163 11.2212 133.595 11.1765C134.033 11.1268 134.351 11.0447 134.55 10.9304C134.753 10.8161 134.855 10.6172 134.855 10.3338V10.2741C134.855 9.53835 134.654 8.96662 134.251 8.55895C133.854 8.15128 133.25 7.94744 132.439 7.94744C131.599 7.94744 130.94 8.13139 130.463 8.49929C129.986 8.86719 129.65 9.25994 129.456 9.67756L127.786 9.08097C128.084 8.38494 128.482 7.84304 128.979 7.45526C129.481 7.0625 130.028 6.78906 130.62 6.63494C131.216 6.47585 131.803 6.39631 132.38 6.39631C132.747 6.39631 133.17 6.44105 133.647 6.53054C134.13 6.61506 134.594 6.79155 135.042 7.06001C135.494 7.32848 135.87 7.73366 136.168 8.27557C136.466 8.81747 136.615 9.54332 136.615 10.4531V18H134.855V16.4489H134.766C134.647 16.6974 134.448 16.9634 134.169 17.2468C133.891 17.5302 133.521 17.7713 133.058 17.9702C132.596 18.169 132.032 18.2685 131.365 18.2685ZM131.634 16.6875C132.33 16.6875 132.916 16.5508 133.394 16.2773C133.876 16.0039 134.239 15.6509 134.483 15.2184C134.731 14.7859 134.855 14.331 134.855 13.8537V12.2429C134.781 12.3324 134.617 12.4144 134.363 12.489C134.115 12.5586 133.826 12.6207 133.498 12.6754C133.175 12.7251 132.859 12.7699 132.551 12.8097C132.248 12.8445 132.002 12.8743 131.813 12.8991C131.355 12.9588 130.928 13.0558 130.53 13.19C130.137 13.3192 129.819 13.5156 129.576 13.7791C129.337 14.0376 129.218 14.3906 129.218 14.8381C129.218 15.4496 129.444 15.9119 129.896 16.2251C130.354 16.5334 130.933 16.6875 131.634 16.6875ZM139.828 18V6.54545H141.528V8.27557H141.647C141.856 7.70881 142.234 7.24893 142.781 6.89595C143.328 6.54297 143.944 6.36648 144.63 6.36648C144.759 6.36648 144.921 6.36896 145.115 6.37393C145.309 6.37891 145.455 6.38636 145.555 6.39631V8.18608C145.495 8.17116 145.358 8.14879 145.145 8.11896C144.936 8.08416 144.715 8.06676 144.481 8.06676C143.924 8.06676 143.427 8.18359 142.99 8.41726C142.557 8.64595 142.214 8.96413 141.96 9.3718C141.712 9.7745 141.588 10.2344 141.588 10.7514V18H139.828ZM151.946 18.2386C150.872 18.2386 149.947 17.9851 149.172 17.478C148.396 16.9709 147.8 16.2724 147.382 15.3825C146.964 14.4925 146.756 13.4759 146.756 12.3324C146.756 11.169 146.969 10.1424 147.397 9.25249C147.829 8.3576 148.431 7.65909 149.202 7.15696C149.977 6.64986 150.882 6.39631 151.916 6.39631C152.721 6.39631 153.447 6.54545 154.094 6.84375C154.74 7.14205 155.269 7.55966 155.682 8.09659C156.095 8.63352 156.351 9.25994 156.45 9.97585H154.69C154.556 9.45383 154.258 8.99148 153.795 8.58878C153.338 8.18111 152.721 7.97727 151.946 7.97727C151.26 7.97727 150.658 8.15625 150.141 8.5142C149.629 8.86719 149.229 9.36683 148.941 10.0131C148.657 10.6545 148.515 11.4077 148.515 12.2727C148.515 13.1577 148.655 13.9283 148.933 14.5845C149.216 15.2408 149.614 15.7504 150.126 16.1133C150.643 16.4762 151.25 16.6577 151.946 16.6577C152.403 16.6577 152.818 16.5781 153.191 16.419C153.564 16.2599 153.88 16.0312 154.138 15.733C154.397 15.4347 154.581 15.0767 154.69 14.6591H156.45C156.351 15.3352 156.105 15.9442 155.712 16.4862C155.324 17.0231 154.809 17.4506 154.168 17.7688C153.532 18.082 152.791 18.2386 151.946 18.2386ZM160.783 11.1094V18H159.023V2.72727H160.783V8.33523H160.932C161.2 7.74361 161.603 7.27379 162.14 6.92578C162.682 6.5728 163.403 6.39631 164.303 6.39631C165.083 6.39631 165.767 6.55291 166.354 6.86612C166.94 7.17436 167.395 7.64915 167.718 8.29048C168.046 8.92685 168.21 9.73722 168.21 10.7216V18H166.45V10.8409C166.45 9.93111 166.214 9.22763 165.742 8.73047C165.275 8.22834 164.626 7.97727 163.796 7.97727C163.219 7.97727 162.702 8.09908 162.244 8.34268C161.792 8.58629 161.434 8.94176 161.171 9.40909C160.912 9.87642 160.783 10.4432 160.783 11.1094Z" fill="black"/>
</svg>
